ply
format ascii 1.0
comment this file contains points and lines.
element vertex 25
property float x
property float y
property float z
element edge 9
property int vertex1
property int vertex2
end_header
0.0804081 47.6655 0
6.40538 37.7747 0
13.9244 31.0882 0
37.8111 11.4816 0
36.8622 14.0477 0
24.3545 28.1169 0
55.7377 21.2326 0
34.1273 32.5816 0
55.1204 24.4852 0
15.1251 42.9511 0
74.7782 25.4944 0
62.2794 35.9272 0
30.7695 44.0822 0
76.9073 49.9174 0
75.4947 50.0886 0
39.0888 50.1541 0
88.5656 61.5035 0
50.4324 57.9313 0
42.2779 66.5508 0
50.3974 83.5744 0
40.0759 89.3433 0
24.8648 78.7696 0
34.5687 94.0806 0
9.09241 68.2238 0
0.390257 49.001 0
0 1
1 2
2 3
3 10
10 16
16 22
22 23
23 24
24 0
