ply
format ascii 1.0
comment this file contains points and lines.
element vertex 50
property float x
property float y
property float z
element edge 11
property int vertex1
property int vertex2
end_header
2.02171 43.5006 0
3.3204 30.5332 0
5.25124 31.1709 0
18.5476 17.8114 0
12.8661 31.462 0
8.96661 36.3612 0
12.1291 33.2232 0
9.69071 36.25 0
18.8181 28.4774 0
31.1791 17.6413 0
26.0784 22.7412 0
22.7123 27.2501 0
31.2245 21.1263 0
25.4081 27.7603 0
35.679 21.3875 0
21.3009 30.8846 0
37.9712 20.7265 0
14.9343 35.9558 0
30.0576 27.6527 0
15.1949 37.3064 0
34.4596 28.9827 0
31.336 31.1915 0
8.0553 41.1781 0
44.9015 27.4312 0
38.0783 30.1072 0
22.9986 38.3726 0
48.9398 36.0502 0
26.1825 39.9676 0
18.812 41.6777 0
17.3766 41.9457 0
40.1703 40.0605 0
24.3582 42.3107 0
27.4462 42.7901 0
11.5798 43.7809 0
43.9183 46.2557 0
17.0917 44.4977 0
38.0485 46.9708 0
18.3902 46.2919 0
41.9234 52.7682 0
36.8145 53.1733 0
9.13114 45.5948 0
31.4011 52.1706 0
6.87223 45.9187 0
29.2866 61.8979 0
30.1325 63.2731 0
20.754 59.6074 0
18.0827 58.9915 0
18.4345 61.7232 0
16.1289 61.507 0
9.49172 58.5884 0
0 1
1 3
3 9
9 16
16 23
23 26
26 38
38 44
44 48
48 49
49 0
