ply
format ascii 1.0
comment this file contains points and lines.
element vertex 1000
property float x
property float y
property float z
element edge 36
property int vertex1
property int vertex2
end_header
15.9574 503.478 0
18.2315 389.821 0
31.5511 342.864 0
31.1734 346.876 0
31.2536 396.066 0
40.8704 355.465 0
54.8206 312.708 0
65.8032 303.689 0
85.595 229.917 0
91.5043 237.662 0
55.0738 367.85 0
40.6801 419.519 0
122.311 197.139 0
123.543 209.777 0
128.223 199.799 0
142.331 167.686 0
88.909 317.216 0
96.9385 319.569 0
176.795 153.598 0
88.3638 350.365 0
52.3607 428.027 0
198.158 125.97 0
182.625 159.526 0
145.09 238.566 0
152.425 225.834 0
215.933 103.156 0
181.82 174.57 0
88.715 362.184 0
235.261 86.8303 0
154.152 242.006 0
210.192 136.45 0
101.917 345.701 0
148.705 261.963 0
152.734 260.713 0
68.7424 410.099 0
259.376 74.7641 0
267.449 66.7652 0
273.987 65.5338 0
263.748 89.4891 0
167.017 251.475 0
126.72 319.238 0
134.621 306.46 0
105.4 356.007 0
202.353 199.428 0
177.278 243.649 0
163.939 268.339 0
225.314 173.832 0
286.226 79.351 0
61.2874 433.406 0
119.598 343.297 0
173.341 260.677 0
234.33 170.187 0
203.496 217.999 0
333.99 29.4273 0
295.477 93.5996 0
307.352 77.0325 0
296.827 95.7668 0
181.073 272.863 0
362.19 33.8153 0
189.739 268.023 0
264.111 169.069 0
343.516 62.9931 0
216.502 234.254 0
343.778 64.8002 0
127.466 354.325 0
265.107 174.833 0
365.714 42.6667 0
300.131 143.408 0
241.249 219.834 0
318.74 127.544 0
199.813 277.11 0
381.952 55.6625 0
419.815 11.7956 0
225.576 251.76 0
385.279 60.7392 0
403.408 42.2975 0
409.933 37.6971 0
434.066 23.0917 0
331.41 141.773 0
371.51 97.4127 0
436.918 31.7839 0
451.722 15.3752 0
112.809 395.07 0
459.566 9.09488 0
232.71 267.455 0
249.837 252.699 0
342.598 156.053 0
484.114 13.7199 0
192.35 318.965 0
490.367 7.25531 0
203.252 307.696 0
472.434 28.2643 0
387.02 118.186 0
439.957 64.8858 0
60.7083 457.2 0
411.98 94.2339 0
487.916 16.1103 0
396.99 111.371 0
318.401 195.398 0
351.067 164.354 0
275.253 242.299 0
314.837 206.166 0
448.679 75.5724 0
507.841 20.2963 0
502.831 32.8679 0
445.538 93.7877 0
190.561 337.866 0
461.264 83.9305 0
407.848 136.425 0
454.646 93.0782 0
311.974 227.667 0
501.647 52.1461 0
143.8 384.86 0
462.494 89.2182 0
505.209 55.3524 0
267.633 273.197 0
229.112 308.9 0
519.787 46.8048 0
556.756 17.266 0
162.883 371.822 0
565.565 11.5736 0
465.421 102.586 0
452.696 114.475 0
540.46 39.0855 0
324.604 230.977 0
427.746 142.343 0
398.871 168.265 0
430.736 140.945 0
552.66 42.8331 0
238.672 313.925 0
571.217 32.6907 0
588.364 22.8789 0
387.823 195.503 0
109.982 425.657 0
604.787 21.8796 0
176.921 371.916 0
559.156 59.6907 0
616.814 14.5877 0
556.134 68.1651 0
309.044 268.128 0
515.698 106.767 0
327.786 256.421 0
341.491 246.158 0
336.876 250.417 0
497.841 125.503 0
277.712 299.541 0
575.239 69.7225 0
490.951 140.878 0
344.08 255.508 0
540.04 110.232 0
529.394 120.089 0
561.056 99.1556 0
636.19 44.8519 0
273.94 313.725 0
323.894 280.275 0
133.031 418.624 0
611.554 73.5844 0
442.478 196.397 0
507.71 149.896 0
470.666 176.8 0
193.421 376.242 0
514.639 148.034 0
452.536 197.192 0
400.748 234.163 0
298.753 306.62 0
409.743 229.451 0
368.395 260.128 0
325.09 295.461 0
697.67 46.6682 0
417.244 234.766 0
446.2 215.672 0
498.369 181.035 0
541.783 153.035 0
664.31 72.4297 0
473.036 201.004 0
229.397 363.44 0
536.91 163.471 0
713.673 48.2988 0
476.819 203.345 0
603.166 122.802 0
257.187 348.518 0
599.446 128.717 0
187.526 393.8 0
596.297 133.992 0
558.513 159.992 0
647.559 105.744 0
565.559 157.418 0
645.543 108.55 0
210.717 382.543 0
269.129 346.676 0
456.032 231.399 0
618.178 133.552 0
708.595 79.5497 0
84.9591 461.453 0
359.943 294.124 0
666.167 109.047 0
728.652 75.5776 0
69.7991 471.422 0
436.137 253.431 0
590.725 162.831 0
260.763 359.102 0
378.168 291.444 0
542.609 200.37 0
378.821 295.062 0
459.062 250.192 0
738.5 93.9025 0
466.249 249.29 0
615.387 167.036 0
749.434 92.1704 0
402.545 286.901 0
256.418 368.853 0
694.874 123.489 0
671.942 137.687 0
227.377 387.746 0
130.105 441.045 0
434.819 276.554 0
783.888 91.2689 0
529.162 229.506 0
467.408 263.294 0
705.998 138.232 0
727.384 127.067 0
551.503 220.693 0
737.905 122.774 0
523.917 239.049 0
755.556 118.954 0
144.805 436.494 0
195.859 410.137 0
623.778 188.136 0
378.539 319.41 0
735.605 138.934 0
793.56 109.578 0
260.005 380.603 0
207.826 407.326 0
769.73 128.979 0
394.627 317.345 0
545.668 245.542 0
556.877 240.155 0
185.922 420.964 0
642.825 199.265 0
477.655 280.425 0
499.076 270.245 0
375.666 330.229 0
650.574 198.157 0
313.725 360.813 0
360.652 340.068 0
225.613 404.795 0
358.566 342.475 0
367.157 338.459 0
775.571 146.572 0
429.228 309.438 0
559.508 249.729 0
230.715 403.394 0
357.577 344.548 0
347.606 350.136 0
414.034 322.454 0
696.509 194.38 0
432.116 314.914 0
780.949 156.89 0
821.449 138.711 0
500.12 285.272 0
800.275 150.473 0
826.611 138.762 0
369.128 345.557 0
183.245 429.273 0
447.502 312.67 0
688.564 206.62 0
732.959 187.046 0
752.736 178.823 0
598.833 250.224 0
587.405 259.242 0
768.841 186.157 0
439.481 325.013 0
411.086 337.082 0
761.895 189.621 0
765.232 192.515 0
590.197 267.883 0
794.724 185.324 0
576.677 276.889 0
632.604 254.351 0
690.614 231.537 0
741.504 212.311 0
520.43 301.364 0
686.467 235.714 0
566.831 283.623 0
698.68 235.557 0
771.454 208.044 0
711.349 231.623 0
341.605 376.232 0
675.306 246.585 0
667.544 251.03 0
681.684 247.918 0
440.175 341.831 0
717.628 237.149 0
659.679 260.706 0
361.164 373.519 0
846.937 193.046 0
731.142 238.494 0
656.176 273.066 0
303.077 401.179 0
517.137 326.28 0
274.119 412.61 0
238.674 425.394 0
334.812 392.078 0
841.209 215.865 0
564.687 313.863 0
835.564 222.625 0
591.893 307.958 0
521.446 332.112 0
381.74 381.065 0
784.361 246.822 0
786.494 247.061 0
796.236 243.93 0
865.884 221.714 0
637.976 297.958 0
779.03 259.344 0
748.786 269.233 0
859.934 238.797 0
838.611 246.46 0
771.641 276.155 0
807.144 265.629 0
886.303 242.212 0
720.856 293.087 0
434.881 378.53 0
867.987 252.085 0
708.517 299.3 0
667.451 311.826 0
501.772 360.855 0
667.134 312.325 0
270.579 429.828 0
530.646 358.034 0
391.818 397.853 0
618.361 336.122 0
864.605 270.385 0
812.396 285.388 0
781.14 294.466 0
595.576 346.024 0
38.7906 497.316 0
73.0496 488.139 0
561.324 357.193 0
875.972 274.814 0
796.151 296.767 0
507.454 373.326 0
621.991 345.024 0
505.75 376.899 0
798.9 301.934 0
457.446 390.33 0
466.464 388.355 0
402.338 405.32 0
868.177 293.996 0
644.204 349.208 0
466.978 393.589 0
404.52 409.414 0
843.527 303.997 0
600.224 362.739 0
453.631 398.109 0
285.11 438.857 0
788.784 318.057 0
734.444 333.315 0
575.926 374.299 0
929.289 292.986 0
761.201 333.7 0
642.107 361.538 0
877.421 308.789 0
712.056 347.848 0
159.909 471.587 0
480.391 400.941 0
655.404 363.464 0
953.926 299.01 0
892.524 313.228 0
76.6822 490.601 0
868.586 324.857 0
558.982 390.099 0
416.122 421.036 0
846.233 335.783 0
789.805 349.271 0
680.317 371.378 0
387.756 429.58 0
828.336 342.419 0
714.484 365.069 0
752.317 359.498 0
391.195 430.262 0
604.375 388.795 0
472.495 415.868 0
667.093 379.325 0
967.363 322.917 0
818.925 353.62 0
895.966 340.113 0
662.636 383.838 0
731.209 371.54 0
953.433 332.505 0
785.471 364.484 0
953.189 334.869 0
638.916 391.714 0
292.575 454.101 0
856.66 356.101 0
679.889 391.423 0
563.293 411.9 0
560.1 413.039 0
859.398 363.314 0
515.13 421.165 0
535.85 418.053 0
827.635 370.163 0
939.513 352.336 0
952.752 350.241 0
475.796 429.357 0
867.077 366.743 0
541.493 420.42 0
638.647 405.477 0
476.485 431.321 0
431.652 439.286 0
712.909 396.87 0
732.653 397.654 0
802.806 390.685 0
632.406 415.721 0
746.856 399.501 0
305.122 462.563 0
370.371 453.474 0
803.816 394.035 0
569.65 427.189 0
969.67 374.327 0
218.598 476.834 0
899.248 388.817 0
891.003 391.307 0
628.633 428.317 0
849.165 401.528 0
698.584 420.191 0
724.465 417.272 0
944.285 390.668 0
349.741 463.788 0
133.992 489.605 0
776.405 417.941 0
477.238 452.029 0
904.925 405.97 0
926.82 404.775 0
783.642 421.502 0
909.664 408.066 0
418.633 462.297 0
878.572 415.306 0
552.356 450.473 0
958.662 410.471 0
552.088 451.67 0
821.182 427.907 0
898.713 421.7 0
779.549 432.878 0
421.501 466.236 0
606.441 450.225 0
187.074 488.57 0
694.949 444.826 0
714.66 443.683 0
250.465 483.658 0
465.584 466.129 0
960.243 425.14 0
933.543 427.545 0
602.332 455.477 0
258.641 483.722 0
972.216 426.175 0
904.173 431.745 0
803.969 440.363 0
940.348 432.094 0
440.628 472.506 0
566.235 465.423 0
383.142 479.086 0
558.814 468.911 0
631.762 464.747 0
994.007 442.898 0
325.255 485.031 0
606.487 468.347 0
504.402 474.781 0
808.415 457.235 0
308.197 486.79 0
486.642 478.003 0
599.781 472.779 0
497.136 478.293 0
455.058 481.119 0
954.13 458.322 0
616.883 474.661 0
677.028 473.54 0
536.031 482.312 0
587.237 481.95 0
863.465 472.426 0
425.484 490.137 0
626.504 484.543 0
643.774 485.055 0
838.207 479.4 0
930.814 476.921 0
689.769 484.341 0
549.459 488.936 0
881.201 480.612 0
925.342 480.116 0
627.544 489.445 0
807.567 485.571 0
455.462 494.997 0
640.398 492.262 0
830.573 492.057 0
899.878 491.653 0
509.69 497.351 0
489.831 497.75 0
620.65 497.062 0
327.267 500.187 0
448.404 499.149 0
813.339 497.073 0
298.376 501.248 0
592.117 499.102 0
977.667 496.72 0
419.997 501.541 0
659.35 502.748 0
980.003 503.404 0
861.648 503.833 0
567.951 503.985 0
867.498 508.764 0
714.752 508.935 0
407.066 507.551 0
341.285 507.074 0
836.664 512.646 0
710.232 512.699 0
841.228 516.252 0
606.408 512.707 0
888.061 517.237 0
582.203 512.432 0
671.67 515.043 0
859.492 524.718 0
983.761 527.954 0
724.905 521.425 0
947.702 527.99 0
462.889 517.403 0
211.284 510.946 0
914.496 537.97 0
427.744 520.095 0
862.745 538.301 0
530.559 526.612 0
433.488 523.318 0
857.434 545.64 0
445.107 525.137 0
513.456 528.713 0
778.53 544.162 0
806.406 546.384 0
678.981 539.631 0
767.271 545.24 0
326.053 521.128 0
645.794 540.338 0
497.311 532.989 0
684.363 545.202 0
564.51 538.023 0
937.733 562.304 0
531.269 536.377 0
172.299 513.461 0
698.018 548.361 0
683.191 547.846 0
722.151 551.003 0
843.422 564.473 0
737.304 557.032 0
605.8 548.564 0
652.261 552.681 0
969.201 577.384 0
906.582 573.322 0
772.006 565.813 0
852.411 572.98 0
911.613 578.496 0
753.039 565.257 0
637.287 556.229 0
684.858 561.268 0
667.27 560.748 0
170.099 517.665 0
650.234 561.982 0
757.946 573.072 0
657.378 564.455 0
815.668 581.037 0
892.943 590.187 0
61.9523 508.054 0
779.356 581.095 0
534.28 556.547 0
272.975 530.152 0
246.356 527.985 0
894.275 597.226 0
652.313 575.15 0
896.085 604.626 0
438.957 552.311 0
171.668 521.597 0
469.564 556.97 0
425.948 553.043 0
647.627 580.459 0
394.759 549.822 0
435.141 554.914 0
775.518 598.482 0
974.291 625.352 0
664.328 586.393 0
524.998 569.328 0
668.924 588.374 0
926.649 623.466 0
894.007 622.391 0
524.533 572.58 0
829.952 614.141 0
292.367 541.204 0
910.433 625.692 0
225.462 532.323 0
407.923 559.257 0
690.018 604.218 0
594.022 590.377 0
859.125 631.456 0
541.321 583.519 0
380.086 559.127 0
855.901 632.167 0
487.544 578.119 0
540.266 587.543 0
206.984 534.242 0
676.668 610.726 0
623.535 602.292 0
445.447 573.548 0
972.345 662.016 0
687.43 614.903 0
822.999 637.918 0
499.231 584.021 0
881.132 648.599 0
194.241 533.484 0
968.3 663.792 0
416.946 571.319 0
928.85 658.806 0
329.26 556.805 0
676.367 620.125 0
529.962 597.37 0
634.428 616.904 0
589.047 612.677 0
870.444 666.898 0
796.826 654.256 0
773.603 649.992 0
567.514 610.376 0
850.724 666.38 0
878.864 672.514 0
234.894 547.332 0
397.175 579.927 0
752.891 651.532 0
942.946 690.231 0
810.56 666.624 0
348.403 571.777 0
554.783 614.204 0
714.726 649.337 0
850.296 681.341 0
668.914 642.847 0
88.7831 519.069 0
407.674 588.175 0
839.537 681.58 0
828.935 679.311 0
698.283 651.839 0
928.806 705.34 0
510.97 613.168 0
256.842 557.552 0
833.03 688.86 0
481.933 609.447 0
725.211 665.81 0
892.597 705.167 0
858.445 699.016 0
903.993 714.242 0
287.571 568.116 0
851.229 702.998 0
521.714 625.266 0
889.482 718.139 0
865.512 716.735 0
669.43 670.245 0
850.091 717.687 0
901.541 735.072 0
507.692 632.207 0
564.702 648.274 0
694.985 684.281 0
623.471 666.414 0
851.716 728.249 0
750.229 701.163 0
749.602 703.731 0
817.272 723.166 0
425.803 616.495 0
777.216 713.866 0
358.971 598.781 0
580.795 660.586 0
415.089 615.434 0
341.937 596.681 0
779.986 723.216 0
327.555 594.174 0
854.12 747.988 0
648.901 689.583 0
882.638 760.358 0
805.312 737.455 0
514.529 652.872 0
711.563 716.422 0
675.568 706.248 0
768.595 735.771 0
889.627 773.457 0
878.351 770.673 0
627.869 694.718 0
706.935 720.897 0
627.614 696.304 0
363.301 614.069 0
714.552 726.122 0
450.007 643.06 0
806.778 758.358 0
869.247 778.524 0
824.424 765.148 0
743.969 741.408 0
831.95 771.834 0
642.624 712.275 0
816.2 770.168 0
469.871 655.687 0
666.324 722.085 0
741.606 748.886 0
382.149 628.201 0
377.446 627.391 0
622.798 712.311 0
629.75 714.772 0
367.936 625.049 0
282.926 595.741 0
785.749 770.527 0
398.461 636.329 0
708.307 746.22 0
864.464 801.783 0
795.337 778.036 0
877.617 807.33 0
496.262 673.274 0
491.999 671.813 0
786.501 776.728 0
375.591 631.768 0
569.047 703.975 0
876.921 820.585 0
473.898 673.032 0
422.184 654.344 0
325.699 618.689 0
713.772 770.153 0
776.987 797.33 0
288.953 609.25 0
855.846 830.943 0
832.656 824.19 0
762.917 797.647 0
844.42 834.781 0
552.481 722.182 0
769.144 810.843 0
708.331 786.291 0
807.659 829.513 0
787.213 826.708 0
567.642 737.713 0
349.825 645.843 0
509.782 715.583 0
413.303 675.355 0
648.42 777.89 0
740.44 818.28 0
700.77 802.145 0
621.622 768.116 0
833.175 860.715 0
324.98 638.69 0
680.288 795.629 0
712.135 810.288 0
206.065 588.2 0
425.889 688.552 0
781.035 849.673 0
627.29 782.464 0
409.471 685.466 0
335.386 651.439 0
618.782 783.058 0
457.22 708.415 0
255.842 615.079 0
651.079 798.986 0
74.644 530.914 0
367.319 668.787 0
806.182 875.714 0
670.013 813.088 0
537.95 752.262 0
771.893 869.909 0
453.266 718.756 0
799.59 891.183 0
68.5511 529.5 0
645.074 815.264 0
448.22 717.798 0
585.618 786.476 0
602.247 794.788 0
739.053 863.863 0
502.649 746.37 0
671.849 831.297 0
617.878 804.757 0
139.7 565.677 0
734.351 866.684 0
301.215 648.113 0
572.966 786.444 0
741.303 872.816 0
553.236 780.638 0
785.598 900.992 0
569.201 791.015 0
309.853 657.96 0
680.624 856.476 0
497.787 759.542 0
609.661 821.971 0
455.863 740.232 0
231.539 619.932 0
454.695 742.365 0
750.381 907.085 0
574.318 810.639 0
729.455 897.874 0
333.656 680.467 0
746.616 911.261 0
556.447 806.448 0
596.432 834.023 0
496.745 778.377 0
452.028 753.69 0
625.379 855.02 0
664.471 880.806 0
240.554 634.497 0
478.24 773.583 0
121.438 565.402 0
491.299 783.793 0
389.855 724.114 0
563.299 832.142 0
321.285 688.444 0
732.561 938.273 0
661.898 896.544 0
616.489 871.21 0
652.012 893.284 0
334.948 699.041 0
367.139 719.728 0
617.763 875.445 0
523.679 821.929 0
489.88 801.327 0
651.28 903.818 0
706.924 953.513 0
486.772 810.975 0
463.973 796.413 0
604.348 890.179 0
206.31 629.049 0
448.152 790.985 0
416.136 771.778 0
366.762 740.872 0
550.055 870.269 0
628.947 932.063 0
389.879 765.11 0
530.414 864.138 0
129.418 583.837 0
549.314 881.556 0
638.531 947.914 0
444.071 810.942 0
226.122 654.983 0
499.902 855.498 0
611.558 936.724 0
447.286 817.758 0
511.53 867.463 0
643.396 965.988 0
354.078 753.796 0
329.683 736.591 0
506.9 868.675 0
648.364 975.486 0
198.641 642.326 0
541.056 903.048 0
607.95 957.96 0
353.713 762.783 0
277.182 704.079 0
517.369 888.765 0
488.608 868.95 0
444.827 835.324 0
592.343 951.417 0
600.301 957.998 0
201.589 648.227 0
284.546 713.531 0
233.534 673.843 0
612.805 970.933 0
253.099 691.475 0
77.2146 552.391 0
547.446 928.291 0
561.425 941.132 0
397.443 811.711 0
435.673 845.73 0
518.088 919.548 0
416.652 838.842 0
343.743 777.96 0
309.433 749.852 0
511.946 920.056 0
568.297 968.313 0
355.93 790.206 0
503.722 918.745 0
537.126 950.632 0
287.492 736.671 0
95.1285 572.301 0
505.491 929.875 0
550.316 973.352 0
550.281 973.824 0
493.929 924.762 0
479.167 924.707 0
485.248 932.514 0
249.46 717.435 0
416.903 875.072 0
531.682 986.68 0
491.683 949.419 0
408.818 871.918 0
313.242 783.09 0
485.062 948.633 0
385.86 855.066 0
389.57 860.54 0
302.493 777.396 0
439.632 915.896 0
365.077 847.091 0
237.574 723.752 0
447.656 946.528 0
404.672 906.291 0
368.41 869.122 0
188.468 684.168 0
246.077 744.971 0
460.395 970.44 0
292.161 795.29 0
145.445 640.402 0
131.923 626.302 0
257.694 760.261 0
359.095 871.796 0
254.186 759.719 0
405.408 922.912 0
322.316 835.897 0
292.115 807.172 0
153.031 654.425 0
179.24 685.591 0
165.999 671.059 0
213.471 728.034 0
165.753 674.435 0
330.232 862.173 0
439.068 989.761 0
337.333 874.065 0
375.099 920.22 0
423.019 984.832 0
317.782 861.136 0
166.833 682.803 0
175.49 693.743 0
392.611 964.227 0
316.795 873.536 0
226.5 766.253 0
99.6229 608.159 0
192.816 731.272 0
254.558 811.32 0
380.924 981.503 0
216.245 766.141 0
364.569 961.673 0
213.05 762.8 0
358.692 959.812 0
277.771 853.943 0
323.138 921.707 0
291.271 879.031 0
155.394 695.042 0
132.603 663.879 0
236.693 807.28 0
321.702 927.483 0
134.133 667.85 0
247.876 831.085 0
253.317 842.87 0
226.588 805.507 0
321.578 944.395 0
147.18 692.793 0
210.197 787.979 0
288.286 906.419 0
266.655 878.368 0
150.764 706.111 0
264.023 878.787 0
271.477 891.785 0
304.575 942.812 0
119.321 667.493 0
122.426 672.611 0
264.375 904.096 0
173.252 758.061 0
218.935 841.347 0
250.31 894.01 0
233.527 866.351 0
223.365 850.878 0
248.069 898.218 0
149.689 733.093 0
130.324 700.455 0
250.933 914.064 0
182.18 798 0
155.744 755.932 0
88.6293 639.281 0
87.6622 638.141 0
173.866 814.381 0
119.991 710.169 0
143.256 760.571 0
83.1724 639.997 0
98.3257 672.793 0
81.1043 645.174 0
176.468 854.741 0
81.6779 651.407 0
153.014 817.764 0
145.284 814.602 0
146.406 818.147 0
159.959 857.978 0
86.2409 686.685 0
123.329 788.2 0
130.077 810.46 0
110.796 776.228 0
60.0442 649.361 0
90.0296 749.535 0
59.2131 647.85 0
77.6551 738.92 0
29.9257 557.642 0
64.594 704.2 0
64.1049 714.68 0
54.9429 698.357 0
61.73 736.592 0
37.2484 620.79 0
30.2175 612.573 0
21.5327 547.347 0
35.8493 669.144 0
30.5152 628.393 0
34.5728 667.731 0
19.7253 618.003 0
0 1
1 2
2 8
8 15
15 25
25 28
28 36
36 53
53 72
72 83
83 89
89 120
120 137
137 177
177 216
216 261
261 367
367 384
384 464
464 608
608 719
719 743
743 764
764 807
807 817
817 842
842 882
882 914
914 927
927 951
951 963
963 979
979 992
992 998
998 999
999 0
